<svg xmlns="http://www.w3.org/2000/svg" id="archive-svg" viewBox="0 0 900 700"
     role="img" aria-labelledby="archive-title archive-desc"
     preserveAspectRatio="xMidYMax slice">
  <title id="archive-title">The Archive &#8212; the unsorted library, and the readers who did not leave.</title>
  <desc id="archive-desc">A vast library receding into darkness: four ranks of shelves rise toward a ceiling that is only a rumor, every shelf crammed with leather-and-parchment spines shoved out of order &#8212; pushed and pulled along their boards, overlapping and gapped, not one title legible. A muted lantern-glow pools low and warm; everything above is near-black. On the floor before the shelves lie three fallen initiates in the tatters of their robes, at rest among a few scattered bones &#8212; one slumped against an upright with a satchel of careful notes, one lying with an arm still reaching toward a shelf, and one sitting as if it had only stopped to rest, cradling a single illuminated page that yet burns with gold leaf and blue ink, the one bright thing in the room. When the shelves are set right the spines slide home into even ranks and their gilded titles bloom back along the leather, name after name.</desc>

  <defs>
    <!-- Deep dark ground: near-black ceiling, a faintly warmer shelf band, near-black floor. -->
    <linearGradient id="archiveBg" x1="0" y1="0" x2="0" y2="1">
      <stop offset="0"    stop-color="#0a0605"/>
      <stop offset="0.28" stop-color="#140c0a"/>
      <stop offset="0.52" stop-color="#1b100b"/>
      <stop offset="0.80" stop-color="#110a08"/>
      <stop offset="1"    stop-color="#050303"/>
    </linearGradient>
    <!-- The one warm pool of lantern light, low and off-centre by the fallen. -->
    <radialGradient id="lanternPool" cx="0.60" cy="0.88" r="0.55">
      <stop offset="0"   stop-color="#4a3418" stop-opacity="0.50"/>
      <stop offset="0.5" stop-color="#2a1d10" stop-opacity="0.22"/>
      <stop offset="1"   stop-color="#140c08" stop-opacity="0"/>
    </radialGradient>
    <linearGradient id="woodPlank" x1="0" y1="0" x2="0" y2="1">
      <stop offset="0" stop-color="#33241a"/>
      <stop offset="1" stop-color="#160f0a"/>
    </linearGradient>
    <linearGradient id="woodPost" x1="0" y1="0" x2="1" y2="0">
      <stop offset="0"   stop-color="#241811"/>
      <stop offset="0.5" stop-color="#302217"/>
      <stop offset="1"   stop-color="#17100b"/>
    </linearGradient>
    <!-- Gold-leaf halo behind the illuminated page. -->
    <radialGradient id="pageGlow" cx="0.5" cy="0.5" r="0.5">
      <stop offset="0"   stop-color="#e0b84e" stop-opacity="0.55"/>
      <stop offset="0.5" stop-color="#a8791f" stop-opacity="0.24"/>
      <stop offset="1"   stop-color="#a8791f" stop-opacity="0"/>
    </radialGradient>
    <!-- Hand stipple for the stone floor: transparent ground, only flecks. -->
    <pattern id="floorStipple" width="22" height="22" patternUnits="userSpaceOnUse">
      <circle cx="4"  cy="6"  r="0.7" fill="#3a2c1e" opacity="0.40"/>
      <circle cx="14" cy="12" r="0.6" fill="#2e2216" opacity="0.38"/>
      <circle cx="9"  cy="18" r="0.5" fill="#42321f" opacity="0.35"/>
      <circle cx="18" cy="3"  r="0.5" fill="#281d13" opacity="0.40"/>
    </pattern>
  </defs>

  <style>
    /* Static art only. The scrambled-to-sorted MERGE and the naming (spine
       titles fading in) are STATE, and live in the page's inline stylesheet
       (#archive-svg.merged .spine / html.restored .spine-name) &#8212; the same
       static-in-SVG / state-in-page split the stair and the Harvester use. */
    .backboard  { fill: #0c0705; opacity: 0.45; }
    .up-post    { fill: url(#woodPost); stroke: #0d0806; stroke-width: 1.2; }
    .plank      { fill: url(#woodPlank); stroke: #0d0806; stroke-width: 1.2; }
    .plank-edge { stroke: #7a5a2a; stroke-width: 0.7; opacity: 0.4; }
    .ceil-hint  { fill: #100a07; stroke: #040202; stroke-width: 0.6; }

    .spine-body { stroke: #160d09; stroke-width: 1; }
    .spine-band { stroke: #8b5a00; stroke-width: 0.8; opacity: 0.32; stroke-linecap: round; }
    .spine-cap  { stroke: #7a6444; stroke-width: 0.6; opacity: 0.28; stroke-linecap: round; }
    .sp-a { fill: #3a2a20; }  .sp-b { fill: #4a3527; }  .sp-c { fill: #241611; }
    .sp-d { fill: #4a1616; }  .sp-e { fill: #5c4a2e; }  .sp-f { fill: #6b5a38; }
    .sp-g { fill: #33321f; }  .sp-h { fill: #3e2a30; }

    /* Gilt spine titles, hidden until the restoration names them. */
    .spine-name { fill: #cda434; font-family: Georgia, 'EB Garamond', serif;
                  font-weight: 600; letter-spacing: 0.02em; opacity: 0; }
    #shelf-4 .spine-name { font-size: 11px; }
    #shelf-3 .spine-name { font-size: 10px; }
    #shelf-2 .spine-name { font-size: 8.5px; }
    #shelf-1 .spine-name { font-size: 7px; }

    .bone     { fill: #b7a988; stroke: #6b5e46; stroke-width: 0.5; opacity: 0.5; }
    .bone-dim { fill: #9a8f72; opacity: 0.35; }
    .robe      { fill: #1c1210; stroke: #0a0605; stroke-width: 1; }
    .robe-fold { fill: none; stroke: #0a0605; stroke-width: 0.7; opacity: 0.7; stroke-linecap: round; }
    .skull  { fill: #cbbd9e; stroke: #7a6e54; stroke-width: 0.7; }
    .socket { fill: #1a1410; }

    .page-parch   { fill: #e8d8b0; stroke: #8b5a00; stroke-width: 0.6; }
    .page-gold    { fill: none; stroke: #c9a227; stroke-width: 2; }
    .page-gold-in { fill: none; stroke: #8b5a00; stroke-width: 1; opacity: 0.8; }
    .page-gild    { fill: #c9a227; }
    .page-initial { fill: #6b0f0f; }
    .page-ink     { stroke: #2a3a5e; stroke-width: 0.9; opacity: 0.7; stroke-linecap: round; }
  </style>

  <!-- ===== ground + the one warm pool ===== -->
  <rect x="0" y="0" width="900" height="700" fill="url(#archiveBg)"/>
  <rect x="0" y="330" width="900" height="370" fill="url(#lanternPool)"/>
  <rect x="0" y="560" width="900" height="140" fill="url(#floorStipple)"/>

  <!-- ===== the dark keeps going up: shelves receding into a rumoured ceiling ===== -->
  <g opacity="0.55">
    <rect class="ceil-hint" x="180" y="112" width="540" height="6" opacity="0.40"/>
    <rect class="ceil-hint" x="150" y="150" width="600" height="8"/>
    <g fill="#0e0806" opacity="0.6">
      <rect x="214" y="126" width="14" height="22"/> <rect x="232" y="128" width="10" height="20"/>
      <rect x="248" y="124" width="16" height="24"/> <rect x="270" y="127" width="12" height="21"/>
      <rect x="430" y="125" width="15" height="23"/> <rect x="450" y="128" width="11" height="20"/>
      <rect x="468" y="124" width="14" height="24"/> <rect x="620" y="126" width="13" height="22"/>
      <rect x="638" y="128" width="10" height="20"/> <rect x="654" y="125" width="15" height="23"/>
    </g>
  </g>

  <!-- ===== the bookcase: dark backboard + two uprights ===== -->
  <rect class="backboard" x="88" y="200" width="724" height="388"/>
  <rect class="up-post" x="70"  y="196" width="22" height="392"/>
  <rect class="up-post" x="808" y="196" width="22" height="392"/>
  <g id="shelf-1">
    <g class="spine" style="--dx: -30px; --nd: 1.1s">
      <rect class="spine-body sp-c" x="230" y="206" width="52" height="44" rx="2"/>
      <line class="spine-cap"  x1="232" y1="209" x2="280" y2="209"/>
      <line class="spine-band" x1="233" y1="216.6" x2="279" y2="216.6"/>
      <line class="spine-band" x1="233" y1="239.4" x2="279" y2="239.4"/>
      <text class="spine-name" x="256" y="228" textLength="32" lengthAdjust="spacingAndGlyphs" transform="rotate(-90 256 228)" text-anchor="middle" dominant-baseline="central">The Well</text>
    </g>
    <g class="spine" style="--dx: 40px; --nd: 0.3s">
      <rect class="spine-body sp-b" x="289" y="210" width="44" height="40" rx="2"/>
      <line class="spine-cap"  x1="291" y1="213" x2="331" y2="213"/>
      <line class="spine-band" x1="292" y1="219.6" x2="330" y2="219.6"/>
      <line class="spine-band" x1="292" y1="240.4" x2="330" y2="240.4"/>
      <text class="spine-name" x="311" y="230" textLength="28" lengthAdjust="spacingAndGlyphs" transform="rotate(-90 311 230)" text-anchor="middle" dominant-baseline="central">Inorder</text>
    </g>
    <g class="spine" style="--dx: -24px; --nd: 2.0s">
      <rect class="spine-body sp-a" x="340" y="204" width="58" height="46" rx="2"/>
      <line class="spine-cap"  x1="342" y1="207" x2="396" y2="207"/>
      <line class="spine-band" x1="343" y1="215" x2="395" y2="215"/>
      <line class="spine-band" x1="343" y1="239" x2="395" y2="239"/>
      <text class="spine-name" x="369" y="227" textLength="34" lengthAdjust="spacingAndGlyphs" transform="rotate(-90 369 227)" text-anchor="middle" dominant-baseline="central">The Chart</text>
    </g>
    <g class="spine" style="--dx: 48px; --nd: 0.8s">
      <rect class="spine-body sp-d" x="405" y="214" width="40" height="36" rx="2"/>
      <line class="spine-cap"  x1="407" y1="217" x2="443" y2="217"/>
      <line class="spine-band" x1="408" y1="222.6" x2="442" y2="222.6"/>
      <line class="spine-band" x1="408" y1="241.4" x2="442" y2="241.4"/>
      <text class="spine-name" x="425" y="232" textLength="24" lengthAdjust="spacingAndGlyphs" transform="rotate(-90 425 232)" text-anchor="middle" dominant-baseline="central">Molds</text>
    </g>
    <g class="spine" style="--dx: -38px; --nd: 1.6s">
      <rect class="spine-body sp-e" x="452" y="206" width="54" height="44" rx="2"/>
      <line class="spine-cap"  x1="454" y1="209" x2="504" y2="209"/>
      <line class="spine-band" x1="455" y1="216.6" x2="503" y2="216.6"/>
      <line class="spine-band" x1="455" y1="239.4" x2="503" y2="239.4"/>
      <text class="spine-name" x="479" y="228" textLength="32" lengthAdjust="spacingAndGlyphs" transform="rotate(-90 479 228)" text-anchor="middle" dominant-baseline="central">Big-O</text>
    </g>
    <g class="spine" style="--dx: 22px; --nd: 0.5s">
      <rect class="spine-body sp-g" x="513" y="210" width="46" height="40" rx="2"/>
      <line class="spine-cap"  x1="515" y1="213" x2="557" y2="213"/>
      <line class="spine-band" x1="516" y1="219.6" x2="556" y2="219.6"/>
      <line class="spine-band" x1="516" y1="240.4" x2="556" y2="240.4"/>
      <text class="spine-name" x="536" y="230" textLength="28" lengthAdjust="spacingAndGlyphs" transform="rotate(-90 536 230)" text-anchor="middle" dominant-baseline="central">Sorted</text>
    </g>
    <g class="spine" style="--dx: -34px; --nd: 2.3s">
      <rect class="spine-body sp-f" x="566" y="206" width="56" height="44" rx="2"/>
      <line class="spine-cap"  x1="568" y1="209" x2="620" y2="209"/>
      <line class="spine-band" x1="569" y1="216.6" x2="619" y2="216.6"/>
      <line class="spine-band" x1="569" y1="239.4" x2="619" y2="239.4"/>
      <text class="spine-name" x="594" y="228" textLength="32" lengthAdjust="spacingAndGlyphs" transform="rotate(-90 594 228)" text-anchor="middle" dominant-baseline="central">The Song</text>
    </g>
    <g class="spine" style="--dx: 30px; --nd: 1.3s">
      <rect class="spine-body sp-h" x="629" y="212" width="44" height="38" rx="2"/>
      <line class="spine-cap"  x1="631" y1="215" x2="671" y2="215"/>
      <line class="spine-band" x1="632" y1="221.1" x2="670" y2="221.1"/>
      <line class="spine-band" x1="632" y1="240.9" x2="670" y2="240.9"/>
      <text class="spine-name" x="651" y="231" textLength="26" lengthAdjust="spacingAndGlyphs" transform="rotate(-90 651 231)" text-anchor="middle" dominant-baseline="central">Found</text>
    </g>
  </g>
  <rect class="plank" x="214" y="248" width="476" height="10" rx="1.5"/>
  <line class="plank-edge" x1="217" y1="249.5" x2="687" y2="249.5"/>
  <g id="shelf-2">
    <g class="spine" style="--dx: 44px; --nd: 0.6s">
      <rect class="spine-body sp-e" x="186" y="296" width="64" height="58" rx="2"/>
      <line class="spine-cap"  x1="188" y1="299" x2="248" y2="299"/>
      <line class="spine-band" x1="189" y1="309.9" x2="247" y2="309.9"/>
      <line class="spine-band" x1="189" y1="340.1" x2="247" y2="340.1"/>
      <text class="spine-name" x="218" y="325" textLength="46" lengthAdjust="spacingAndGlyphs" transform="rotate(-90 218 325)" text-anchor="middle" dominant-baseline="central">Three Laws</text>
    </g>
    <g class="spine" style="--dx: -36px; --nd: 1.8s">
      <rect class="spine-body sp-a" x="258" y="302" width="52" height="52" rx="2"/>
      <line class="spine-cap"  x1="260" y1="305" x2="308" y2="305"/>
      <line class="spine-band" x1="261" y1="314.5" x2="307" y2="314.5"/>
      <line class="spine-band" x1="261" y1="341.5" x2="307" y2="341.5"/>
      <text class="spine-name" x="284" y="328" textLength="40" lengthAdjust="spacingAndGlyphs" transform="rotate(-90 284 328)" text-anchor="middle" dominant-baseline="central">The Copy</text>
    </g>
    <g class="spine" style="--dx: 60px; --nd: 0.2s">
      <rect class="spine-body sp-d" x="318" y="294" width="70" height="60" rx="2"/>
      <line class="spine-cap"  x1="320" y1="297" x2="386" y2="297"/>
      <line class="spine-band" x1="321" y1="308.4" x2="385" y2="308.4"/>
      <line class="spine-band" x1="321" y1="339.6" x2="385" y2="339.6"/>
      <text class="spine-name" x="353" y="324" textLength="48" lengthAdjust="spacingAndGlyphs" transform="rotate(-90 353 324)" text-anchor="middle" dominant-baseline="central">Named Pairs</text>
    </g>
    <g class="spine" style="--dx: -52px; --nd: 1.4s">
      <rect class="spine-body sp-c" x="396" y="308" width="48" height="46" rx="2"/>
      <line class="spine-cap"  x1="398" y1="311" x2="442" y2="311"/>
      <line class="spine-band" x1="399" y1="319" x2="441" y2="319"/>
      <line class="spine-band" x1="399" y1="343" x2="441" y2="343"/>
      <text class="spine-name" x="420" y="331" textLength="34" lengthAdjust="spacingAndGlyphs" transform="rotate(-90 420 331)" text-anchor="middle" dominant-baseline="central">Buckets</text>
    </g>
    <g class="spine" style="--dx: 32px; --nd: 0.9s">
      <rect class="spine-body sp-b" x="452" y="298" width="66" height="56" rx="2"/>
      <line class="spine-cap"  x1="454" y1="301" x2="516" y2="301"/>
      <line class="spine-band" x1="455" y1="311.4" x2="515" y2="311.4"/>
      <line class="spine-band" x1="455" y1="340.6" x2="515" y2="340.6"/>
      <text class="spine-name" x="485" y="326" textLength="44" lengthAdjust="spacingAndGlyphs" transform="rotate(-90 485 326)" text-anchor="middle" dominant-baseline="central">The Ledger</text>
    </g>
    <g class="spine" style="--dx: -24px; --nd: 2.2s">
      <rect class="spine-body sp-f" x="526" y="302" width="56" height="52" rx="2"/>
      <line class="spine-cap"  x1="528" y1="305" x2="580" y2="305"/>
      <line class="spine-band" x1="529" y1="314.5" x2="579" y2="314.5"/>
      <line class="spine-band" x1="529" y1="341.5" x2="579" y2="341.5"/>
      <text class="spine-name" x="554" y="328" textLength="40" lengthAdjust="spacingAndGlyphs" transform="rotate(-90 554 328)" text-anchor="middle" dominant-baseline="central">Cisterns</text>
    </g>
    <g class="spine" style="--dx: 50px; --nd: 1.0s">
      <rect class="spine-body sp-g" x="590" y="296" width="68" height="58" rx="2"/>
      <line class="spine-cap"  x1="592" y1="299" x2="656" y2="299"/>
      <line class="spine-band" x1="593" y1="309.9" x2="655" y2="309.9"/>
      <line class="spine-band" x1="593" y1="340.1" x2="655" y2="340.1"/>
      <text class="spine-name" x="624" y="325" textLength="46" lengthAdjust="spacingAndGlyphs" transform="rotate(-90 624 325)" text-anchor="middle" dominant-baseline="central">The Stack</text>
    </g>
    <g class="spine" style="--dx: -40px; --nd: 0.4s">
      <rect class="spine-body sp-h" x="666" y="304" width="54" height="50" rx="2"/>
      <line class="spine-cap"  x1="668" y1="307" x2="718" y2="307"/>
      <line class="spine-band" x1="669" y1="316" x2="717" y2="316"/>
      <line class="spine-band" x1="669" y1="342" x2="717" y2="342"/>
      <text class="spine-name" x="693" y="329" textLength="38" lengthAdjust="spacingAndGlyphs" transform="rotate(-90 693 329)" text-anchor="middle" dominant-baseline="central">Pointers</text>
    </g>
  </g>
  <rect class="plank" x="168" y="352" width="566" height="13" rx="1.5"/>
  <line class="plank-edge" x1="171" y1="353.5" x2="731" y2="353.5"/>
  <g id="shelf-3">
    <g class="spine" style="--dx: -40px; --nd: 2.1s">
      <rect class="spine-body sp-b" x="134" y="386" width="78" height="74" rx="2"/>
      <line class="spine-cap"  x1="136" y1="389" x2="210" y2="389"/>
      <line class="spine-band" x1="137" y1="403.8" x2="209" y2="403.8"/>
      <line class="spine-band" x1="137" y1="442.2" x2="209" y2="442.2"/>
      <text class="spine-name" x="173" y="423" textLength="62" lengthAdjust="spacingAndGlyphs" transform="rotate(-90 173 423)" text-anchor="middle" dominant-baseline="central">Lineages</text>
    </g>
    <g class="spine" style="--dx: 58px; --nd: 0.7s">
      <rect class="spine-body sp-c" x="221" y="394" width="62" height="66" rx="2"/>
      <line class="spine-cap"  x1="223" y1="397" x2="281" y2="397"/>
      <line class="spine-band" x1="224" y1="409.8" x2="280" y2="409.8"/>
      <line class="spine-band" x1="224" y1="444.2" x2="280" y2="444.2"/>
      <text class="spine-name" x="252" y="427" textLength="54" lengthAdjust="spacingAndGlyphs" transform="rotate(-90 252 427)" text-anchor="middle" dominant-baseline="central">The Bough</text>
    </g>
    <g class="spine" style="--dx: -30px; --nd: 1.2s">
      <rect class="spine-body sp-f" x="292" y="384" width="84" height="76" rx="2"/>
      <line class="spine-cap"  x1="294" y1="387" x2="374" y2="387"/>
      <line class="spine-band" x1="295" y1="402.2" x2="373" y2="402.2"/>
      <line class="spine-band" x1="295" y1="441.8" x2="373" y2="441.8"/>
      <text class="spine-name" x="334" y="422" textLength="64" lengthAdjust="spacingAndGlyphs" transform="rotate(-90 334 422)" text-anchor="middle" dominant-baseline="central">A Kept Chain</text>
    </g>
    <g class="spine" style="--dx: 64px; --nd: 0.1s">
      <rect class="spine-body sp-a" x="385" y="400" width="56" height="60" rx="2"/>
      <line class="spine-cap"  x1="387" y1="403" x2="439" y2="403"/>
      <line class="spine-band" x1="388" y1="414.4" x2="438" y2="414.4"/>
      <line class="spine-band" x1="388" y1="445.6" x2="438" y2="445.6"/>
      <text class="spine-name" x="413" y="430" textLength="48" lengthAdjust="spacingAndGlyphs" transform="rotate(-90 413 430)" text-anchor="middle" dominant-baseline="central">The Lens</text>
    </g>
    <g class="spine" style="--dx: -58px; --nd: 1.9s">
      <rect class="spine-body sp-d" x="450" y="388" width="76" height="72" rx="2"/>
      <line class="spine-cap"  x1="452" y1="391" x2="524" y2="391"/>
      <line class="spine-band" x1="453" y1="405.3" x2="523" y2="405.3"/>
      <line class="spine-band" x1="453" y1="442.7" x2="523" y2="442.7"/>
      <text class="spine-name" x="488" y="424" textLength="60" lengthAdjust="spacingAndGlyphs" transform="rotate(-90 488 424)" text-anchor="middle" dominant-baseline="central">Deep Roots</text>
    </g>
    <g class="spine" style="--dx: 26px; --nd: 0.6s">
      <rect class="spine-body sp-e" x="535" y="394" width="66" height="66" rx="2"/>
      <line class="spine-cap"  x1="537" y1="397" x2="599" y2="397"/>
      <line class="spine-band" x1="538" y1="409.8" x2="598" y2="409.8"/>
      <line class="spine-band" x1="538" y1="444.2" x2="598" y2="444.2"/>
      <text class="spine-name" x="568" y="427" textLength="54" lengthAdjust="spacingAndGlyphs" transform="rotate(-90 568 427)" text-anchor="middle" dominant-baseline="central">Quicksort</text>
    </g>
    <g class="spine" style="--dx: -48px; --nd: 1.5s">
      <rect class="spine-body sp-h" x="610" y="386" width="80" height="74" rx="2"/>
      <line class="spine-cap"  x1="612" y1="389" x2="688" y2="389"/>
      <line class="spine-band" x1="613" y1="403.8" x2="687" y2="403.8"/>
      <line class="spine-band" x1="613" y1="442.2" x2="687" y2="442.2"/>
      <text class="spine-name" x="650" y="423" textLength="62" lengthAdjust="spacingAndGlyphs" transform="rotate(-90 650 423)" text-anchor="middle" dominant-baseline="central">Whispers</text>
    </g>
    <g class="spine" style="--dx: 44px; --nd: 2.4s">
      <rect class="spine-body sp-g" x="699" y="396" width="68" height="64" rx="2"/>
      <line class="spine-cap"  x1="701" y1="399" x2="765" y2="399"/>
      <line class="spine-band" x1="702" y1="411.4" x2="764" y2="411.4"/>
      <line class="spine-band" x1="702" y1="444.6" x2="764" y2="444.6"/>
      <text class="spine-name" x="733" y="428" textLength="52" lengthAdjust="spacingAndGlyphs" transform="rotate(-90 733 428)" text-anchor="middle" dominant-baseline="central">True Order</text>
    </g>
  </g>
  <rect class="plank" x="118" y="458" width="664" height="16" rx="1.5"/>
  <line class="plank-edge" x1="121" y1="459.5" x2="779" y2="459.5"/>
  <g id="shelf-4">
    <g class="spine" style="--dx: 52px; --nd: 0.5s">
      <rect class="spine-body sp-a" x="112" y="478" width="84" height="88" rx="2"/>
      <line class="spine-cap"  x1="114" y1="481" x2="194" y2="481"/>
      <line class="spine-band" x1="115" y1="499.1" x2="193" y2="499.1"/>
      <line class="spine-band" x1="115" y1="544.9" x2="193" y2="544.9"/>
      <text class="spine-name" x="154" y="522" textLength="76" lengthAdjust="spacingAndGlyphs" transform="rotate(-90 154 522)" text-anchor="middle" dominant-baseline="central">Of Chains</text>
    </g>
    <g class="spine" style="--dx: -44px; --nd: 1.7s">
      <rect class="spine-body sp-d" x="206" y="486" width="66" height="80" rx="2"/>
      <line class="spine-cap"  x1="208" y1="489" x2="270" y2="489"/>
      <line class="spine-band" x1="209" y1="505.2" x2="269" y2="505.2"/>
      <line class="spine-band" x1="209" y1="546.8" x2="269" y2="546.8"/>
      <text class="spine-name" x="239" y="526" textLength="68" lengthAdjust="spacingAndGlyphs" transform="rotate(-90 239 526)" text-anchor="middle" dominant-baseline="central">The Halving</text>
    </g>
    <g class="spine" style="--dx: 30px; --nd: 2.2s">
      <rect class="spine-body sp-e" x="282" y="474" width="90" height="92" rx="2"/>
      <line class="spine-cap"  x1="284" y1="477" x2="370" y2="477"/>
      <line class="spine-band" x1="285" y1="496.1" x2="369" y2="496.1"/>
      <line class="spine-band" x1="285" y1="543.9" x2="369" y2="543.9"/>
      <text class="spine-name" x="327" y="520" textLength="80" lengthAdjust="spacingAndGlyphs" transform="rotate(-90 327 520)" text-anchor="middle" dominant-baseline="central">One True Mold</text>
    </g>
    <g class="spine" style="--dx: -66px; --nd: 0.9s">
      <rect class="spine-body sp-c" x="382" y="490" width="58" height="76" rx="2"/>
      <line class="spine-cap"  x1="384" y1="493" x2="438" y2="493"/>
      <line class="spine-band" x1="385" y1="508.2" x2="437" y2="508.2"/>
      <line class="spine-band" x1="385" y1="547.8" x2="437" y2="547.8"/>
      <text class="spine-name" x="411" y="528" textLength="64" lengthAdjust="spacingAndGlyphs" transform="rotate(-90 411 528)" text-anchor="middle" dominant-baseline="central">Echoes</text>
    </g>
    <g class="spine" style="--dx: 70px; --nd: 0.3s">
      <rect class="spine-body sp-f" x="450" y="480" width="82" height="86" rx="2"/>
      <line class="spine-cap"  x1="452" y1="483" x2="530" y2="483"/>
      <line class="spine-band" x1="453" y1="500.6" x2="529" y2="500.6"/>
      <line class="spine-band" x1="453" y1="545.4" x2="529" y2="545.4"/>
      <text class="spine-name" x="491" y="523" textLength="74" lengthAdjust="spacingAndGlyphs" transform="rotate(-90 491 523)" text-anchor="middle" dominant-baseline="central">Two Halves</text>
    </g>
    <g class="spine" style="--dx: -28px; --nd: 1.1s">
      <rect class="spine-body sp-g" x="542" y="484" width="70" height="82" rx="2"/>
      <line class="spine-cap"  x1="544" y1="487" x2="610" y2="487"/>
      <line class="spine-band" x1="545" y1="503.7" x2="609" y2="503.7"/>
      <line class="spine-band" x1="545" y1="546.3" x2="609" y2="546.3"/>
      <text class="spine-name" x="577" y="525" textLength="70" lengthAdjust="spacingAndGlyphs" transform="rotate(-90 577 525)" text-anchor="middle" dominant-baseline="central">First In</text>
    </g>
    <g class="spine" style="--dx: 40px; --nd: 0.0s">
      <rect class="spine-body sp-b" x="622" y="476" width="86" height="90" rx="2"/>
      <line class="spine-cap"  x1="624" y1="479" x2="706" y2="479"/>
      <line class="spine-band" x1="625" y1="497.6" x2="705" y2="497.6"/>
      <line class="spine-band" x1="625" y1="544.4" x2="705" y2="544.4"/>
      <text class="spine-name" x="665" y="521" textLength="78" lengthAdjust="spacingAndGlyphs" transform="rotate(-90 665 521)" text-anchor="middle" dominant-baseline="central">The Labyrinth</text>
    </g>
    <g class="spine" style="--dx: -54px; --nd: 1.4s">
      <rect class="spine-body sp-d" x="718" y="488" width="72" height="78" rx="2"/>
      <line class="spine-cap"  x1="720" y1="491" x2="788" y2="491"/>
      <line class="spine-band" x1="721" y1="506.7" x2="787" y2="506.7"/>
      <line class="spine-band" x1="721" y1="547.3" x2="787" y2="547.3"/>
      <text class="spine-name" x="754" y="527" textLength="66" lengthAdjust="spacingAndGlyphs" transform="rotate(-90 754 527)" text-anchor="middle" dominant-baseline="central">Keys &amp; Vows</text>
    </g>
  </g>
  <rect class="plank" x="90" y="564" width="726" height="20" rx="1.5"/>
  <line class="plank-edge" x1="93" y1="565.5" x2="813" y2="565.5"/>

  <!-- ===== bone-field foreground ===== -->
  <g id="bone-field">
    <path class="bone" d="M 430 672 Q 470 666 508 672" stroke-width="3.4" fill="none" opacity="0.40"/>
    <ellipse class="bone-dim" cx="426" cy="672" rx="4" ry="3"/>
    <ellipse class="bone-dim" cx="512" cy="672" rx="4" ry="3"/>
    <path class="bone" d="M 700 660 Q 726 656 752 662" stroke-width="3" fill="none" opacity="0.35"/>
    <path class="bone" d="M 96 678 Q 120 674 146 680" stroke-width="2.6" fill="none" opacity="0.30"/>
  </g>

  <!-- ===== the fallen: three initiates at rest among the shelves ===== -->
  <g id="the-fallen">

    <!-- one slumped against the left upright, an arm over a satchel of notes -->
    <g id="fallen-1" transform="translate(150 0)">
      <path class="robe" d="M -34 664 Q -40 624 -16 606 Q -2 598 12 606 Q 30 620 34 664 Z"/>
      <path class="robe-fold" d="M -12 658 Q -8 628 2 610"/>
      <g transform="translate(-6 600) rotate(-16)">
        <ellipse class="skull" cx="0" cy="0" rx="11" ry="12"/>
        <path class="skull" d="M -6 9 Q 0 14 6 9 L 4 13 Q 0 16 -4 13 Z"/>
        <ellipse class="socket" cx="-4" cy="-1" rx="2.4" ry="2.8"/>
        <ellipse class="socket" cx="4"  cy="-1" rx="2.4" ry="2.8"/>
        <path class="socket" d="M -1.4 5 L 0 2.4 L 1.4 5 Z"/>
      </g>
      <g transform="translate(-2 640)">
        <rect fill="#241a12" stroke="#0a0605" stroke-width="0.8" x="-16" y="-4" width="32" height="22" rx="2"/>
        <path fill="none" stroke="#0a0605" stroke-width="0.7" d="M -16 2 H 16"/>
        <rect fill="#e8d8b0" opacity="0.65" x="-9" y="-9" width="8" height="8" transform="rotate(-8 -5 -5)"/>
        <rect fill="#d4b98c" opacity="0.55" x="1" y="-10" width="7" height="9" transform="rotate(6 4 -5)"/>
      </g>
      <path class="bone" d="M 14 618 Q 4 634 -6 638" stroke-width="3" fill="none"/>
    </g>

    <!-- one lying on the floor, an arm still reaching toward the front shelf -->
    <g id="fallen-3" transform="translate(330 0)">
      <path class="robe" d="M -58 666 Q -40 650 -6 652 Q 34 654 54 668 Q 20 676 -20 674 Q -46 672 -58 666 Z"/>
      <path class="robe-fold" d="M -30 664 Q 0 658 30 664"/>
      <g transform="translate(40 656) rotate(24)">
        <ellipse class="skull" cx="0" cy="0" rx="11" ry="12"/>
        <path class="skull" d="M -6 9 Q 0 14 6 9 L 4 13 Q 0 16 -4 13 Z"/>
        <ellipse class="socket" cx="-4" cy="-1" rx="2.4" ry="2.8"/>
        <ellipse class="socket" cx="4"  cy="-1" rx="2.4" ry="2.8"/>
      </g>
      <path class="bone" d="M -20 654 Q -44 636 -60 612" stroke-width="3" fill="none"/>
      <path class="bone" d="M -60 612 L -66 606 M -60 612 L -63 604 M -60 612 L -57 603" stroke-width="1.3" fill="none"/>
    </g>

    <!-- one sitting as if resting, cradling the illuminated page -->
    <g id="fallen-2" transform="translate(600 0)">
      <ellipse cx="0" cy="626" rx="48" ry="42" fill="url(#pageGlow)"/>
      <path class="robe" d="M -40 666 Q -44 620 -20 602 Q 0 590 20 602 Q 44 620 40 666 Z"/>
      <path class="robe-fold" d="M -18 660 Q -14 626 -2 606"/>
      <path class="robe-fold" d="M 16 662 Q 14 628 4 608"/>
      <g transform="translate(0 594)">
        <ellipse class="skull" cx="0" cy="0" rx="12" ry="13"/>
        <path class="skull" d="M -7 10 Q 0 16 7 10 L 5 15 Q 0 18 -5 15 Z"/>
        <ellipse class="socket" cx="-4.5" cy="-1" rx="2.6" ry="3"/>
        <ellipse class="socket" cx="4.5"  cy="-1" rx="2.6" ry="3"/>
        <path class="socket" d="M -1.6 6 L 0 2.6 L 1.6 6 Z"/>
      </g>
      <path class="bone" d="M -26 616 Q -18 628 -6 632" stroke-width="3" fill="none"/>
      <path class="bone" d="M 26 616 Q 18 628 6 632" stroke-width="3" fill="none"/>
      <g id="illuminated-page" transform="translate(0 624) rotate(-4)">
        <rect class="page-parch"   x="-17" y="-22" width="34" height="44" rx="1.5"/>
        <rect class="page-gold"    x="-17" y="-22" width="34" height="44" rx="1.5"/>
        <rect class="page-gold-in" x="-13.5" y="-18.5" width="27" height="37"/>
        <rect class="page-gild"    x="-11" y="-16" width="9" height="9" rx="1"/>
        <path class="page-initial" d="M -9.5 -14.5 L -9.5 -8.5 M -9.5 -14.5 Q -6 -14.5 -6 -12 Q -6 -9.5 -9.5 -9.5"/>
        <path class="page-ink" d="M 1 -14 H 12 M -11 -3 H 12 M -11 2 H 12 M -11 7 H 8 M -11 12 H 12"/>
      </g>
      <path class="bone" d="M -8 636 L -3 628 M -4 638 L 1 630 M 1 638 L 5 631" stroke-width="1.3" fill="none"/>
    </g>

  </g>
</svg>